<svg width="16" height="16" viewBox="0 0 16 16" fill="none" xmlns="http://www.w3.org/2000/svg">
<path d="M13.3537 11.3535L11.3537 13.3535C11.2598 13.4474 11.1326 13.5001 10.9999 13.5001C10.8672 13.5001 10.74 13.4474 10.6462 13.3535C10.5523 13.2597 10.4996 13.1325 10.4996 12.9998C10.4996 12.8671 10.5523 12.7399 10.6462 12.646L11.793 11.4998H2.99991C2.8673 11.4998 2.74012 11.4471 2.64635 11.3533C2.55258 11.2596 2.49991 11.1324 2.49991 10.9998C2.49991 10.8672 2.55258 10.74 2.64635 10.6462C2.74012 10.5525 2.8673 10.4998 2.99991 10.4998H11.793L10.6462 9.35354C10.5523 9.25972 10.4996 9.13247 10.4996 8.99979C10.4996 8.86711 10.5523 8.73986 10.6462 8.64604C10.74 8.55222 10.8672 8.49951 10.9999 8.49951C11.1326 8.49951 11.2598 8.55222 11.3537 8.64604L13.3537 10.646C13.4001 10.6925 13.437 10.7476 13.4622 10.8083C13.4873 10.869 13.5003 10.9341 13.5003 10.9998C13.5003 11.0655 13.4873 11.1306 13.4622 11.1913C13.437 11.252 13.4001 11.3071 13.3537 11.3535ZM4.64615 7.35354C4.73998 7.44736 4.86722 7.50007 4.99991 7.50007C5.13259 7.50007 5.25984 7.44736 5.35366 7.35354C5.44748 7.25972 5.50018 7.13247 5.50018 6.99979C5.50018 6.86711 5.44748 6.73986 5.35366 6.64604L4.20678 5.49979H12.9999C13.1325 5.49979 13.2597 5.44711 13.3535 5.35334C13.4472 5.25957 13.4999 5.1324 13.4999 4.99979C13.4999 4.86718 13.4472 4.74 13.3535 4.64624C13.2597 4.55247 13.1325 4.49979 12.9999 4.49979H4.20678L5.35366 3.35354C5.44748 3.25972 5.50018 3.13247 5.50018 2.99979C5.50018 2.86711 5.44748 2.73986 5.35365 2.64604C5.25983 2.55222 5.13259 2.49951 4.99991 2.49951C4.86722 2.49951 4.73998 2.55222 4.64615 2.64604L2.64616 4.64604C2.59967 4.69248 2.56279 4.74762 2.53763 4.80832C2.51246 4.86902 2.49951 4.93408 2.49951 4.99979C2.49951 5.0655 2.51246 5.13056 2.53763 5.19126C2.56279 5.25196 2.59967 5.3071 2.64616 5.35354L4.64615 7.35354Z" fill="#879A94"/>
</svg>
