<svg width="16" height="16" viewBox="0 0 16 16" fill="none" xmlns="http://www.w3.org/2000/svg">
<g id="Icon Style">
<path id="Union" d="M11.3563 7.6436L6.35625 2.6436C6.28396 2.57577 6.19394 2.5298 6.09661 2.511C5.99927 2.49219 5.89861 2.50133 5.80625 2.53735C5.71525 2.5756 5.63761 2.63994 5.58311 2.72224C5.52861 2.80455 5.49969 2.90114 5.5 2.99985V12.9999C5.49969 13.0986 5.52861 13.1952 5.58311 13.2775C5.63761 13.3598 5.71525 13.4241 5.80625 13.4624C5.86793 13.4868 5.93364 13.4996 6 13.4999C6.13277 13.4993 6.26027 13.4478 6.35625 13.3561L11.3563 8.3561C11.4501 8.26131 11.5028 8.13328 11.5028 7.99985C11.5028 7.86643 11.4501 7.7384 11.3563 7.6436Z" fill="#17AD49"/>
</g>
</svg>
