<svg width="16" height="16" viewBox="0 0 16 16" fill="none" xmlns="http://www.w3.org/2000/svg">
<g id="Icon Style">
<path id="Union" d="M10.1938 2.53735C10.1014 2.50133 10.0007 2.49219 9.9034 2.511C9.80607 2.5298 9.71605 2.57577 9.64376 2.6436L4.64376 7.6436C4.54986 7.7384 4.49719 7.86643 4.49719 7.99985C4.49719 8.13328 4.54986 8.26131 4.64376 8.3561L9.64376 13.3561C9.73973 13.4478 9.86723 13.4993 10 13.4999C10.0664 13.4996 10.1321 13.4868 10.1938 13.4624C10.2848 13.4241 10.3624 13.3598 10.4169 13.2775C10.4714 13.1952 10.5003 13.0986 10.5 12.9999V2.99985C10.5003 2.90114 10.4714 2.80455 10.4169 2.72224C10.3624 2.63994 10.2848 2.5756 10.1938 2.53735Z" fill="#17AD49"/>
</g>
</svg>
