<svg width="16" height="16" viewBox="0 0 16 16" fill="none" xmlns="http://www.w3.org/2000/svg">
<g id="Icon Style">
<path id="Union" d="M12.6938 2.53735C12.6014 2.50133 12.5007 2.49219 12.4034 2.511C12.3061 2.5298 12.216 2.57577 12.1438 2.6436L8 6.7936V2.99985C8.00031 2.90114 7.9714 2.80455 7.9169 2.72224C7.8624 2.63994 7.78476 2.5756 7.69376 2.53735C7.6014 2.50133 7.50073 2.49219 7.4034 2.511C7.30607 2.5298 7.21605 2.57577 7.14375 2.6436L2.14375 7.6436C2.04986 7.7384 1.99719 7.86643 1.99719 7.99985C1.99719 8.13328 2.04986 8.26131 2.14375 8.3561L7.14375 13.3561C7.23973 13.4478 7.36723 13.4993 7.5 13.4999C7.56636 13.4996 7.63208 13.4868 7.69376 13.4624C7.78476 13.4241 7.8624 13.3598 7.9169 13.2775C7.9714 13.1952 8.00031 13.0986 8 12.9999V9.2061L12.1438 13.3561C12.2397 13.4478 12.3672 13.4993 12.5 13.4999C12.5664 13.4996 12.6321 13.4868 12.6938 13.4624C12.7848 13.4241 12.8624 13.3598 12.9169 13.2775C12.9714 13.1952 13.0003 13.0986 13 12.9999V2.99985C13.0003 2.90114 12.9714 2.80455 12.9169 2.72224C12.8624 2.63994 12.7848 2.5756 12.6938 2.53735Z" fill="#17AD49"/>
</g>
</svg>
