<svg width="16" height="16" viewBox="0 0 16 16" fill="none" xmlns="http://www.w3.org/2000/svg">
<g id="Icon Style">
<path id="Union" d="M13.8563 7.6436L8.85625 2.6436C8.78396 2.57577 8.69394 2.5298 8.59661 2.511C8.49927 2.49219 8.39861 2.50133 8.30625 2.53735C8.21525 2.5756 8.13761 2.63994 8.08311 2.72224C8.02861 2.80455 7.99969 2.90114 8 2.99985V6.7936L3.85625 2.6436C3.78396 2.57577 3.69394 2.5298 3.59661 2.511C3.49927 2.49219 3.39861 2.50133 3.30625 2.53735C3.21525 2.5756 3.13761 2.63994 3.08311 2.72224C3.02861 2.80455 2.99969 2.90114 3 2.99985V12.9999C2.99969 13.0986 3.02861 13.1952 3.08311 13.2775C3.13761 13.3598 3.21525 13.4241 3.30625 13.4624C3.36793 13.4868 3.43364 13.4996 3.5 13.4999C3.63277 13.4993 3.76027 13.4478 3.85625 13.3561L8 9.2061V12.9999C7.99969 13.0986 8.02861 13.1952 8.08311 13.2775C8.13761 13.3598 8.21525 13.4241 8.30625 13.4624C8.36793 13.4868 8.43364 13.4996 8.5 13.4999C8.63277 13.4993 8.76027 13.4478 8.85625 13.3561L13.8563 8.3561C13.9501 8.26131 14.0028 8.13328 14.0028 7.99985C14.0028 7.86643 13.9501 7.7384 13.8563 7.6436Z" fill="#17AD49"/>
</g>
</svg>
