<svg width="32" height="32" viewBox="0 0 32 32" fill="none" xmlns="http://www.w3.org/2000/svg">
<g clip-path="url(#clip0_2653_47355)">
<rect width="32" height="32" fill="#00291B"/>
<path d="M27 5H12.3333C8.28325 5 5 8.28325 5 12.3333V27C7.98652 27 10.4171 24.6196 10.4979 21.6526C9.78719 21.0756 9.22552 20.4281 8.87084 19.7751C5.37724 13.3431 13.6293 6.95858 21.6762 10.3112C21.6762 10.3112 18.7513 17.3335 13.1472 19.3389C12.2026 19.6769 11.0916 19.3624 10.8605 18.3862C10.7719 18.0118 10.7453 17.6531 10.7387 17.3971C10.7175 16.5836 11.0861 15.6778 11.9162 14.6846C14.0472 12.1349 16.7159 11.0265 18.9809 10.5249C18.2853 10.6079 16.9773 10.8543 16.0027 11.1962C14.889 11.5548 13.3534 12.2513 12.1608 13.3074C10.9682 14.3635 10.105 15.6491 10.0476 17.192C10.017 18.0143 10.454 19.0681 11.138 19.88C11.6469 20.4341 12.3627 21.0296 13.2181 21.5H16C22.0751 21.5 27 16.5751 27 10.5V5Z" fill="url(#paint0_radial_2653_47355)"/>
<path d="M10.3565 18.6155C10.2964 18.3589 10.2682 18.1102 10.2768 17.8796C10.3342 16.3367 11.1974 15.0511 12.39 13.995C12.6523 13.7628 12.9311 13.548 13.2183 13.3503C15.0735 11.7254 17.158 10.9286 18.9809 10.5249C18.2853 10.6079 16.9773 10.8543 16.0027 11.1962C14.889 11.5548 13.3535 12.2513 12.1609 13.3074C10.9683 14.3635 10.1051 15.6491 10.0476 17.192C10.0315 17.6253 10.1452 18.1229 10.3565 18.6155Z" fill="url(#paint1_linear_2653_47355)"/>
<path d="M10.4979 21.6525C9.78718 21.0756 9.22555 20.4281 8.87089 19.7751C8.72415 19.505 8.59813 19.2349 8.49194 18.9656C8.62719 19.4613 8.82801 19.9619 9.10006 20.4627C9.41002 21.0334 9.87806 21.5999 10.4655 22.1188C10.4827 21.9652 10.4936 21.8097 10.4979 21.6525Z" fill="url(#paint2_linear_2653_47355)"/>
<path d="M13.1472 19.3389C17.8391 17.66 20.653 12.4645 21.4448 10.8175C21.5984 10.8745 21.752 10.9349 21.9055 10.9988C21.9055 10.9988 18.9806 18.0211 13.3764 20.0266C12.4318 20.3646 11.3209 20.0501 11.0898 19.0738C11.0682 18.983 11.0504 18.893 11.0356 18.8052C11.4441 19.4466 12.3543 19.6227 13.1472 19.3389Z" fill="url(#paint3_linear_2653_47355)"/>
</g>
<defs>
<radialGradient id="paint0_radial_2653_47355" cx="0" cy="0" r="1" gradientUnits="userSpaceOnUse" gradientTransform="translate(9.8125 5) rotate(76.7787) scale(19.5387 17.4004)">
<stop stop-color="#A5EB12"/>
<stop offset="1" stop-color="#3DBE3B"/>
</radialGradient>
<linearGradient id="paint1_linear_2653_47355" x1="11.881" y1="9.34132" x2="20.0133" y2="17.9518" gradientUnits="userSpaceOnUse">
<stop stop-color="#17AD49"/>
<stop offset="1" stop-color="#17AD49" stop-opacity="0.1"/>
</linearGradient>
<linearGradient id="paint2_linear_2653_47355" x1="11.881" y1="9.34132" x2="20.0133" y2="17.9518" gradientUnits="userSpaceOnUse">
<stop stop-color="#17AD49"/>
<stop offset="1" stop-color="#17AD49" stop-opacity="0.1"/>
</linearGradient>
<linearGradient id="paint3_linear_2653_47355" x1="11.881" y1="9.34132" x2="20.0133" y2="17.9518" gradientUnits="userSpaceOnUse">
<stop stop-color="#17AD49"/>
<stop offset="1" stop-color="#17AD49" stop-opacity="0.1"/>
</linearGradient>
<clipPath id="clip0_2653_47355">
<rect width="32" height="32" rx="5.33333" fill="white"/>
</clipPath>
</defs>
</svg>
