<svg width="40" height="40" viewBox="0 0 40 40" fill="none" xmlns="http://www.w3.org/2000/svg">
<rect width="40" height="40" rx="20" fill="#F0F2F2"/>
<rect x="4.525" y="4.525" width="30.95" height="30.95" rx="15.475" fill="#E1E6E4"/>
<rect x="4.525" y="4.525" width="30.95" height="30.95" rx="15.475" stroke="#D2D9D7" stroke-width="1.05"/>
<path d="M12.4726 24C12.3846 24 12.3126 23.972 12.2566 23.916C12.2006 23.86 12.1726 23.792 12.1726 23.712V15.9C12.1726 15.812 12.2006 15.74 12.2566 15.684C12.3126 15.628 12.3846 15.6 12.4726 15.6H13.4206C13.5326 15.6 13.6166 15.632 13.6726 15.696C13.7286 15.752 13.7646 15.796 13.7806 15.828L16.0966 20.148L18.4366 15.828C18.4526 15.796 18.4886 15.752 18.5446 15.696C18.6006 15.632 18.6846 15.6 18.7966 15.6H19.7326C19.8206 15.6 19.8926 15.628 19.9486 15.684C20.0046 15.74 20.0326 15.812 20.0326 15.9V23.712C20.0326 23.792 20.0046 23.86 19.9486 23.916C19.8926 23.972 19.8206 24 19.7326 24H18.7246C18.6366 24 18.5646 23.972 18.5086 23.916C18.4606 23.86 18.4366 23.792 18.4366 23.712V18.516L16.7566 21.72C16.7166 21.792 16.6646 21.856 16.6006 21.912C16.5366 21.96 16.4526 21.984 16.3486 21.984H15.8566C15.7446 21.984 15.6566 21.96 15.5926 21.912C15.5366 21.856 15.4886 21.792 15.4486 21.72L13.7686 18.516V23.712C13.7686 23.792 13.7406 23.86 13.6846 23.916C13.6286 23.972 13.5606 24 13.4806 24H12.4726ZM21.8631 24C21.7991 24 21.7391 23.976 21.6831 23.928C21.6351 23.88 21.6111 23.82 21.6111 23.748C21.6111 23.716 21.6191 23.68 21.6351 23.64L24.5271 15.9C24.5511 15.82 24.5951 15.752 24.6591 15.696C24.7311 15.632 24.8271 15.6 24.9471 15.6H26.2551C26.3751 15.6 26.4671 15.632 26.5311 15.696C26.5951 15.752 26.6431 15.82 26.6751 15.9L29.5671 23.64C29.5751 23.68 29.5791 23.716 29.5791 23.748C29.5791 23.82 29.5551 23.88 29.5071 23.928C29.4591 23.976 29.4031 24 29.3391 24H28.2951C28.1831 24 28.0991 23.976 28.0431 23.928C27.9951 23.872 27.9631 23.82 27.9471 23.772L27.3831 22.308H23.8191L23.2551 23.772C23.2391 23.82 23.2031 23.872 23.1471 23.928C23.0991 23.976 23.0191 24 22.9071 24H21.8631ZM24.2391 20.928H26.9631L25.5951 17.22L24.2391 20.928Z" fill="#00291B"/>
</svg>
